<?xml version="1.0" standalone="no"?><svg xmlns="http://www.w3.org/2000/svg" viewBox="0 0 1440 320"><path fill="#0099ff" fill-opacity="1" d="M0,256L14.1,218.7C28.2,181,56,107,85,85.3C112.9,64,141,96,169,117.3C197.6,139,226,149,254,170.7C282.4,192,311,224,339,234.7C367.1,245,395,235,424,208C451.8,181,480,139,508,106.7C536.5,75,565,53,593,80C621.2,107,649,181,678,202.7C705.9,224,734,192,762,197.3C790.6,203,819,245,847,234.7C875.3,224,904,160,932,149.3C960,139,988,181,1016,213.3C1044.7,245,1073,267,1101,229.3C1129.4,192,1158,96,1186,90.7C1214.1,85,1242,171,1271,197.3C1298.8,224,1327,192,1355,186.7C1383.5,181,1412,203,1426,213.3L1440,224L1440,320L1425.9,320C1411.8,320,1384,320,1355,320C1327.1,320,1299,320,1271,320C1242.4,320,1214,320,1186,320C1157.6,320,1129,320,1101,320C1072.9,320,1045,320,1016,320C988.2,320,960,320,932,320C903.5,320,875,320,847,320C818.8,320,791,320,762,320C734.1,320,706,320,678,320C649.4,320,621,320,593,320C564.7,320,536,320,508,320C480,320,452,320,424,320C395.3,320,367,320,339,320C310.6,320,282,320,254,320C225.9,320,198,320,169,320C141.2,320,113,320,85,320C56.5,320,28,320,14,320L0,320Z"></path></svg>